<?xml version="1.0" encoding="UTF-8" standalone="no"?>
<!DOCTYPE svg PUBLIC "-//W3C//DTD SVG 1.1//EN"
 "http://www.w3.org/Graphics/SVG/1.1/DTD/svg11.dtd">
<!-- Generated by graphviz version 14.0.4 (20251115.1723)
 -->
<!-- Title: SingleSampleQcWorkflow Pages: 1 -->
<svg width="642pt" height="106pt"
 viewBox="0.00 0.00 642.00 106.00" xmlns="http://www.w3.org/2000/svg" xmlns:xlink="http://www.w3.org/1999/xlink">
<g id="graph0" class="graph" transform="scale(1 1) rotate(0) translate(4 102.3)">
<title>SingleSampleQcWorkflow</title>
<polygon fill="#f9f9f9" stroke="none" points="-4,4 -4,-102.3 637.6,-102.3 637.6,4 -4,4"/>
<text xml:space="preserve" text-anchor="middle" x="316.8" y="-73.4" font-family="Times,serif" font-size="22.00">Single Sample QC Workflow</text>
<!-- RunMultiQc -->
<g id="node1" class="node">
<title>RunMultiQc</title>
<polygon fill="#8da0cb" stroke="#444444" stroke-width="3" points="187.2,-64.8 0,-64.8 0,0 187.2,0 187.2,-64.8"/>
<text xml:space="preserve" text-anchor="middle" x="93.6" y="-40.12" font-family="Helvetica,sans-Serif" font-size="12.00">RunMultiQc</text>
<text xml:space="preserve" text-anchor="middle" x="93.6" y="-27.38" font-family="Helvetica,sans-Serif" font-size="12.00">(C)</text>
<text xml:space="preserve" text-anchor="middle" x="93.6" y="-14.62" font-family="Helvetica,sans-Serif" font-size="12.00">START</text>
</g>
<!-- CheckMultiQc -->
<g id="node2" class="node">
<title>CheckMultiQc</title>
<polygon fill="#fc8d62" stroke="#444444" points="410.4,-64.8 223.2,-64.8 223.2,0 410.4,0 410.4,-64.8"/>
<text xml:space="preserve" text-anchor="middle" x="316.8" y="-40.12" font-family="Helvetica,sans-Serif" font-size="12.00">CheckMultiQc</text>
<text xml:space="preserve" text-anchor="middle" x="316.8" y="-27.38" font-family="Helvetica,sans-Serif" font-size="12.00">(C)</text>
<text xml:space="preserve" text-anchor="middle" x="316.8" y="-14.62" font-family="Helvetica,sans-Serif" font-size="12.00">[Evaluate thresholds]</text>
</g>
<!-- RunMultiQc&#45;&gt;CheckMultiQc -->
<g id="edge1" class="edge">
<title>RunMultiQc&#45;&gt;CheckMultiQc</title>
<path fill="none" stroke="#888888" stroke-width="2" d="M188.58,-32.4C188.58,-32.4 211.94,-32.4 211.94,-32.4"/>
<polygon fill="#888888" stroke="#888888" stroke-width="2" points="211.94,-35.2 219.94,-32.4 211.94,-29.6 211.94,-35.2"/>
</g>
<!-- RegisterQcMetricsToMetamist -->
<g id="node3" class="node">
<title>RegisterQcMetricsToMetamist</title>
<polygon fill="#66c2a5" stroke="#444444" stroke-width="3" points="633.6,-64.8 446.4,-64.8 446.4,0 633.6,0 633.6,-64.8"/>
<text xml:space="preserve" text-anchor="middle" x="540" y="-40.12" font-family="Helvetica,sans-Serif" font-size="12.00">RegisterQcMetricsToMetamist</text>
<text xml:space="preserve" text-anchor="middle" x="540" y="-27.38" font-family="Helvetica,sans-Serif" font-size="12.00">(C)</text>
<text xml:space="preserve" text-anchor="middle" x="540" y="-14.62" font-family="Helvetica,sans-Serif" font-size="12.00">END</text>
</g>
<!-- CheckMultiQc&#45;&gt;RegisterQcMetricsToMetamist -->
<g id="edge2" class="edge">
<title>CheckMultiQc&#45;&gt;RegisterQcMetricsToMetamist</title>
<path fill="none" stroke="#888888" stroke-width="2" d="M410.81,-32.4C410.81,-32.4 434,-32.4 434,-32.4"/>
<polygon fill="#888888" stroke="#888888" stroke-width="2" points="434,-35.2 442,-32.4 434,-29.6 434,-35.2"/>
</g>
</g>
</svg>
